# xmcd
#
# Track frame offsets:
#	150
#	14397
#	32490
#	47187
#	60592
#	74787
#	89112
#	106220
#	121970
#	137415
#
# Disc length: 1991 seconds
#
# Revision: 0
# Processed by: cddbd v1.5.1PL0 Copyright (c) Steve Scherf et al.
# Submitted via: audiograbber 1.83.01
#
DISCID=8b07c50a
DTITLE=J.B. Long - Dort Wo Die Cowboys Sind...
DYEAR=1900
DGENRE=
TTITLE0=Dort Wo Die Cowboys Sind
TTITLE1=I Bin A Steirischer Cowboy
TTITLE2=Highway Charly
TTITLE3=Angeln Is Tausendmal Schöner
TTITLE4=Trucker Lilly
TTITLE5=Das Mädchen Mit Dem Man Pferde Stehlen Kann
TTITLE6=Trucker Melodie
TTITLE7=Das Sind Meine Nashville Memories
TTITLE8=Augen So Dchön Wie Das Morgenlicht
TTITLE9=Keep Smilling Am Montagsmorgen
EXTD=
EXTT0=
EXTT1=
EXTT2=
EXTT3=
EXTT4=
EXTT5=
EXTT6=
EXTT7=
EXTT8=
EXTT9=
PLAYORDER=
